<svg width="26" height="24" viewBox="0 0 26 24" fill="none" xmlns="http://www.w3.org/2000/svg">
<path fill-rule="evenodd" clip-rule="evenodd" d="M20.5577 21.601C23.3399 19.3798 25.1224 15.9593 25.1224 12.1224C25.1224 5.42738 19.695 0 13 0C6.305 0 0.877625 5.42738 0.877625 12.1224C0.877625 15.9593 2.66018 19.3798 5.44231 21.601C6.04402 20.0168 8.40739 14.6938 13 14.6938C17.5926 14.6938 19.956 20.0168 20.5577 21.601ZM10.7959 11.4723C11.4483 11.8962 12.2154 12.1224 13 12.1224C14.0522 12.1224 15.0613 11.716 15.8053 10.9927C16.5494 10.2693 16.9673 9.28824 16.9673 8.26527C16.9673 7.5024 16.7347 6.75666 16.2987 6.12236C15.8628 5.48806 15.2432 4.99369 14.5182 4.70175C13.7933 4.40981 12.9956 4.33343 12.226 4.48226C11.4564 4.63108 10.7495 4.99844 10.1947 5.53787C9.63985 6.0773 9.262 6.76457 9.10892 7.51278C8.95584 8.26099 9.0344 9.03653 9.33468 9.74132C9.63496 10.4461 10.1435 11.0485 10.7959 11.4723Z" fill="#CDBE91"/>
</svg>
